# xmcd
# 
# Track frame offsets:
#     150
#     16062
#     30564
#     51930
#     64667
#     84918
#     95795
#     111655
#     127103
#     140689
#     161249
#     177984
#     196186
#     208544
#     230823
#     244765
#     258888
#     276796
#     296110
#     311172
#     325280
# 
# Disc length: 4578
# 
# Revision: 0
# Processed by: cddbd v1.5.2PL0 Copyright (c) Steve Scherf et al.
# Submitted via: fre:ac v1.0.17
# 
DISCID=4211e015
DTITLE=Various Artist - All That We Do
DYEAR=0
DGENRE=Country
TTITLE0=Tommy Nolen and Silvia - All That We Do
TTITLE1=Tommy Nolen and Silvia - Together Again
TTITLE2=Tommy Nolen and Silvia - Tonight
TTITLE3=Tommy Nolen and Silvia - Night Train To Memphis
TTITLE4=Tommy Nolen - What Would You Do?
TTITLE5=Tommy Nolen and Silvia - Unbreakable Heart
TTITLE6=Tommy Nolen and Silvia - That Is Me
TTITLE7=Tommy Nolen - Gas Money Blues
TTITLE8=Tommy Nolen and Silvia - Yankee, Go Home
TTITLE9=Tommy Nolen - I'll Keep On Rollin'
TTITLE10=Tommy Nolen - Who's Gonna Listen
TTITLE11=Tommy Nolen and Silvia - A Ship Named Love
TTITLE12=Tommy Nolen and Silvia - I Can't Help It
TTITLE13=Tommy Nolen - A Bottle Of Blues
TTITLE14=Tommy Nolen - I Am Not The Same
TTITLE15=Tommy Nolen and Silvia - Undying Love
TTITLE16=Tommy Nolen - My Hometown
TTITLE17=Tommy Nolen and Silvia - A Case Of Blues
TTITLE18=Tommy Nolen - Let's Do The Swing
TTITLE19=Tommy Nolen - Outro
TTITLE20=Tommy Nolen - Thinking Of You
EXTD=
EXTT0=
EXTT1=
EXTT2=
EXTT3=
EXTT4=
EXTT5=
EXTT6=
EXTT7=
EXTT8=
EXTT9=
EXTT10=
EXTT11=
EXTT12=
EXTT13=
EXTT14=
EXTT15=
EXTT16=
EXTT17=
EXTT18=
EXTT19=
EXTT20=
PLAYORDER=
